<?xml version="1.0" encoding="UTF-8"?>
<svg id="Layer_1" xmlns="http://www.w3.org/2000/svg" width="740" height="116.4" version="1.1" viewBox="0 0 740 116.4">
  <defs>
    <style>
      .st0 {
        fill: #ff2038;
      }

      .st2 {
        fill: #fff;
      }

      .st3 {
        fill: #008dff;
      }
    </style>
  </defs>
  <path class="st0" d="M97.6,116.3H19.9C9.4,116.4,0,108.1,0,97.3V19.7C0,8.7,9,0,19.9,0h77.2c10.7,0,19.5,9,19.5,19.7v76.8c0,10.3-8.3,19.7-19.1,19.7Z"/>
  <g>
    <path class="st2" d="M161.2,11.7h60.3v7.1h-51v38.1h38.2v6.7h-38.2v42.7h-9.3V11.7Z"/>
    <path class="st2" d="M233.4,18.5h9.6v12.7h-9.6v-12.7ZM233.7,41.4h9v64.8h-9V41.4Z"/>
    <path class="st2" d="M313.9,106.2h-9v-43.4c0-10.8-5.8-16-14-16s-16.7,5.8-20.7,13.1v46.3h-9V41.4h8.9v11.1c4.6-6.7,12.9-12.5,23.8-12.5s20.2,7.9,20.2,21.4v44.8Z"/>
    <path class="st2" d="M357.3,107.6c-16.8,0-29.9-12.7-29.9-33.8s13.1-33.8,29.9-33.8,28.5,12.5,28.5,31v3.8h-49.1c.3,16.4,8.1,26.7,20.6,26.7s16.4-6.7,19-13.8l7.2,2.4c-3.8,9.9-12,17.5-26.3,17.5ZM337,69h39.5c-.3-12.7-6.7-23.1-19.2-23.1-11.5.1-19,8.9-20.3,23.1Z"/>
    <path class="st3" d="M401.3,11.7h30c19.7,0,32.1,9,32.1,26.7s-12.4,27.2-32.1,27.2h-20.7v40.6h-9.3V11.7ZM430.8,58.7c14.3,0,23.2-6.8,23.2-20.2s-8.9-19.9-23.2-19.9h-20.2v40h20.2Z"/>
    <path class="st3" d="M513.4,106.2l-1.4-11c-4.6,6.4-12.8,12.4-22.8,12.4s-19.2-7.4-19.2-17.7,10.7-18.8,23.9-20.2c6.7-.6,13.1-1,17.9-1.1v-7.6c0-10-5.6-14.7-13.9-14.7s-14.7,5.1-17.8,12.5l-7.5-2.5c4-10.7,14.3-16,25.6-16s22.4,6.3,22.4,20.6v31.3l1.4,14h-8.6ZM495,75.6c-10,1.3-16.3,5.4-16.3,13.8s4.7,11.8,12.7,11.8,16-6.3,20.4-13.1v-13.8c-5.1.1-11.1.6-16.8,1.3Z"/>
    <path class="st3" d="M570,48.8c-1.1-.3-2.5-.6-4.4-.6-7.9,0-14.2,4.6-18.6,12v46h-9V41.4h8.9v11.8c4.4-7.1,11.1-12.9,20.3-12.9h2.9v8.5Z"/>
    <path class="st3" d="M617.9,89.8c0-6.8-4.2-9.9-16.3-12.5-15.8-3.3-23.1-8.3-23.1-19.3s10-17.9,22.5-17.9,20,4.7,23.6,14.2l-7.8,2.2c-2.6-6.4-7.8-10.6-16.1-10.6s-14.3,5-14.3,11.3,5.3,9.5,17.7,12.1c14.6,3.2,21.8,8.3,21.8,19.6s-9.9,18.8-23.9,18.8-22.7-4.6-27-16l7.6-2.4c3.2,7.9,10,12.4,19.6,12.4s15.6-5,15.6-11.8Z"/>
    <path class="st3" d="M665.2,107.6c-16.8,0-29.9-12.7-29.9-33.8s13.1-33.8,29.9-33.8,28.5,12.5,28.5,31v3.8h-49.1c.3,16.4,8.1,26.7,20.6,26.7s16.4-6.7,19-13.8l7.2,2.4c-3.8,9.9-12,17.5-26.3,17.5ZM644.9,69h39.5c-.3-12.7-6.7-23.1-19.2-23.1-11.5.1-19,8.9-20.3,23.1Z"/>
    <path class="st3" d="M740,48.8c-1.1-.3-2.5-.6-4.4-.6-7.9,0-14.2,4.6-18.6,12v46h-9V41.4h8.9v11.8c4.4-7.1,11.1-12.9,20.3-12.9h2.9v8.5Z"/>
  </g>
  <path class="st2" d="M95.5,59.4V19.5s-73.8,0-73.8,0v78.2s27.5,0,27.5,0v-18.5s22.9,0,22.9,0v-19.7s23.4,0,23.4,0ZM26.7,92.7l.2-32h17s0,31.9,0,31.9h-17.2ZM49.2,74.3v-18.5s-22.3,0-22.3,0v-16.2s40.3,0,40.3,0v34.6s-17.9,0-17.9,0ZM26.8,34.6v-10.1s63.6,0,63.6,0v29.9s-18.2,0-18.2,0v-19.8c-.1,0-45.4,0-45.4,0Z"/>
</svg>
